Coordinates

Units are S.I. units (second, meters, Newtons, ...)
If the header above contains a line with 'inDegrees', this indicates whether rotational values are in degrees (yes) or radians (no).

inDegrees=no
nColumns=21
nRows=20
DataType=double
version=3
OpenSimVersion=4.6-2026-03-31-d6972f9e6
endheader
time	/jointset/ground_pelvis/pelvis_tilt/value	/jointset/ground_pelvis/pelvis_list/value	/jointset/ground_pelvis/pelvis_rotation/value	/jointset/ground_pelvis/pelvis_tx/value	/jointset/ground_pelvis/pelvis_ty/value	/jointset/ground_pelvis/pelvis_tz/value	/jointset/hip_r/hip_flexion_r/value	/jointset/hip_r/hip_adduction_r/value	/jointset/hip_r/hip_rotation_r/value	/jointset/walker_knee_r/knee_angle_r/value	/jointset/patellofemoral_r/knee_angle_r_beta/value	/jointset/ankle_r/ankle_angle_r/value	/jointset/subtalar_r/subtalar_angle_r/value	/jointset/hip_l/hip_flexion_l/value	/jointset/hip_l/hip_adduction_l/value	/jointset/hip_l/hip_rotation_l/value	/jointset/walker_knee_l/knee_angle_l/value	/jointset/patellofemoral_l/knee_angle_l_beta/value	/jointset/ankle_l/ankle_angle_l/value	/jointset/subtalar_l/subtalar_angle_l/value
142.496	-0.08453090488169458	-0.1504701583282924	1.564175453573387	0.8237586475626719	0.9151094551524657	-0.8910385598786609	0.5375180557006068	-0.09250269896901876	0.1332617892739663	1.257969574952787	1.257969575310159	-0.255952425506103	-0.5313952841715656	-0.01420713696242467	0.1481086062159963	0.1394742945657738	0.3438719119370928	0.3438719126675809	0.06369431557473093	-0.3472494044251693
142.5	-0.07747385897084789	-0.1531928414138973	1.564181594096367	0.8237286451845987	0.9175792275894169	-0.891122340454556	0.5481706437487106	-0.08531174524092192	0.1296798658745101	1.23544545727943	1.235445457592931	-0.2532523019010531	-0.5300979619629577	-0.03396420436707404	0.1390166715287845	0.1420337994951585	0.3214198778372559	0.3214198787219413	0.03668286649497356	-0.3447797572737429
142.504	-0.0704482942057463	-0.1562463537250365	1.564183549448598	0.8236880810985405	0.9200443955878218	-0.8912379396007771	0.5582265082450747	-0.07832099379372644	0.1257100746219124	1.211173128321499	1.211173128611928	-0.2510786941602673	-0.5289518267016604	-0.05268531589297134	0.129794980268408	0.143247266478023	0.299658805820993	0.2996588068578354	0.0093161275355539	-0.3407256534657604
142.508	-0.06348479553860953	-0.1596016411528579	1.564176612914103	0.8236383698967995	0.9224936104352566	-0.8913833631027589	0.5676394442158739	-0.07153780587957485	0.1214111575711238	1.185163013776172	1.185163014066242	-0.2493485835565366	-0.5278789738589288	-0.07033434206649708	0.1204974839954512	0.1430476864827424	0.2787333708089377	0.2787333719949243	-0.01818947552992417	-0.3350360072692851
142.512	-0.05661560471371264	-0.1632243902710036	1.564156259004216	0.8235808130903793	0.9249159430986331	-0.891556726247837	0.5763587647482054	-0.06496977594067507	0.1168434934799229	1.157426487301708	1.157426487611994	-0.2479594099255724	-0.5267732499428465	-0.08688715377835268	0.1111841484873878	0.1414024416552171	0.2587849386705543	0.2587849400002071	-0.04563925797509213	-0.3277263538422106
142.516	-0.04987439911242338	-0.1670755094041722	1.56411828226686	0.8235166581619543	0.9273008336814449	-0.8917562465967512	0.584330397937709	-0.0586249570951286	0.1120685443186036	1.127977673581759	1.127977673927194	-0.2467914341463276	-0.525502360915291	-0.1023310125704845	0.101919341261394	0.1383152833413582	0.2399513291502083	0.2399513306136578	-0.07286209973233558	-0.3188796842092455
142.52	-0.04329597069048995	-0.1711115237756826	1.564058936941694	0.8234471638157344	0.9296380642868757	-0.8919802344808654	0.5914980086555137	-0.05251199648580934	0.1071482042413491	1.096835449257287	1.096835449644882	-0.2457110866288601	-0.523910976927793	-0.1166640523671119	0.09277001708281547	0.1338270933385124	0.2223663894285196	0.222366391009706	-0.099710993198955	-0.3086443548866094
142.524	-0.03691590211033028	-0.1752849047682909	1.563975080331748	0.823373658233707	0.9319177545198449	-0.8922270783588448	0.5978041748449734	-0.04664033068894664	0.1021440013481729	1.064025633062484	1.064025633490669	-0.2445752509095285	-0.5218248128435438	-0.129894798405826	0.08380392769967379	0.1280154696359174	0.2061594465905328	0.206159448266078	-0.126062526205086	-0.2972293460432777
142.528	-0.0307702787001035	-0.1795444394400105	1.563864312520385	0.8232975817430204	0.9341303712106742	-0.892495223908548	0.6031917396630462	-0.04102049059012415	0.09711613799844131	1.029583370896567	1.029583371356188	-0.243236350753273	-0.5190555707357527	-0.1420416047209487	0.07508800556136118	0.1209932108760495	0.1914546610514839	0.1914546627905708	-0.1518154874172674	-0.2848972130231195
142.532	-0.02489544475647764	-0.1838357761660148	1.563725102450992	0.8232205092113543	0.936266740889265	-0.8927831454544524	0.6076054879823591	-0.03566450657392518	0.09212238244151373	0.9935557199620727	0.9935557204387856	-0.2415480498691051	-0.515406600595701	-0.1531318454440488	0.06668701461890217	0.1129057606390039	0.1783703328085557	0.1783703345738925	-0.1768887458704154	-0.2719550553655492
142.536	-0.01932779080355316	-0.1881022116046618	1.56355689381197	0.8231441497813257	0.9383180597123614	-0.8930893102110956	0.6109941922828557	-0.03058637330811368	0.08721682935756898	0.9560043963243738	0.9560043968018592	-0.2393713321154768	-0.5106791624310812	-0.1632007832877707	0.05866251474634653	0.1039276940724368	0.1670181913591027	0.1670181931088218	-0.2012186221761493	-0.2587438866004275
142.54	-0.01410354168766044	-0.192285716098996	1.563360187310089	0.823070323642308	0.9402759012707746	-0.8934121376501118	0.6133129710397225	-0.02580251040183278	0.08244855713111224	0.917008602615223	0.9170086030784221	-0.2365806939362894	-0.5046791786074067	-0.1722901256928069	0.05107214489285806	0.09425836155876778	0.1575026780813916	0.1575026797716003	-0.2247560156158512	-0.2456268474493631
142.544	-0.009258488000792946	-0.1963281433884346	1.563136596113958	0.8230009181908386	0.9421322267604937	-0.8937499572058257	0.614525821661003	-0.021332116875982	0.07786022859990857	0.8766678017200453	0.8766678021577057	-0.2330701643277394	-0.4972243489699642	-0.1804463458517581	0.04396917526944902	0.08411681791018122	0.1499202143192972	0.1499202159069773	-0.2474635336762275	-0.2329767058440703
142.548	-0.004827527749751802	-0.2001724992694437	1.562888871312252	0.8229378288659097	0.9438794081451031	-0.8941009699466549	0.6146080745757043	-0.01719723239558144	0.07348667854715403	0.8351042319100338	0.835104232316189	-0.2287588653090122	-0.4881514802807596	-0.1877189528670504	0.03740217447255298	0.0737361424552134	0.144358398762948	0.1443584002089449	-0.2693128262069649	-0.2211630765672224
142.552	-0.0008438264109075279	-0.2037641123521691	1.562620895094941	0.8228828916742865	0.9455102770290594	-0.89446322200149	0.6135484557695955	-0.01342226044994329	0.06935352384821576	0.7924649142186997	0.7924649145930602	-0.2235958151157321	-0.4773238375204402	-0.1941589458713593	0.03141455425432578	0.06335722381932786	0.1408950516438597	0.1408950529157248	-0.2902822696274733	-0.2105398078464558
142.556	0.002662475787062307	-0.2070516533704703	1.562337637910765	0.8228378135952543	0.9470182003711659	-0.8948345936767503	0.6113506056817014	-0.01003284235011173	0.06547589027054292	0.7489229753287745	0.7489229756761562	-0.2175636608144893	-0.464638262716688	-0.1998175218658061	0.02604386133476557	0.05322212675774855	0.1395971192269253	0.1395971203013608	-0.3103551057417027	-0.201432997649759
142.56	0.005665843665715193	-0.2099880984797037	1.562045072570597	0.822804105474915	0.9483971675504785	-0.8952128007018132	0.6080341575800418	-0.007054224645542972	0.06185744629351009	0.7046782503633847	0.7046782506922894	-0.2106810358076051	-0.4500317669267414	-0.2047448643573436	0.02132091509523026	0.04356725696616656	0.1405195950526113	0.1405195959172209	-0.3295181201033301	-0.1941300705829005
142.564	0.008146977537431906	-0.2125317243078367	1.561750036807775	0.8227830220870327	0.949641871566056	-0.8955954025742237	0.6036354991856594	-0.004509347038836872	0.05848995030407229	0.6599571676233522	0.6599571679438574	-0.2030032946429214	-0.4334872972364834	-0.2089888447596909	0.017268952888651	0.0346165647138784	0.1437046208738622	0.1437046215279125	-0.3477608983578906	-0.1888702748350235
142.568	0.01009437867769707	-0.2146470796861657	1.561460037004422	0.8227755144648483	0.9507477790478307	-0.8959798178782439	0.5982081426876044	-0.002416771697854661	0.05535344027509192	0.615011840903802	0.6150118412251102	-0.1946214729409596	-0.4150383872646116	-0.2125936907240198	0.0139028182438653	0.02657497018762763	0.1491808147134323	0.1491808151674266	-0.3650756175366851	-0.1858368903028307
142.572	0.01150582237747081	-0.2163057827500851	1.561182989454404	0.8227821983917306	0.9517111921812368	-0.8963633498764978	0.5918224956368719	-0.000788506648459728	0.05241711478668118	0.5701182485955893	0.5701182489237544	-0.1856594239455259	-0.3947724079609814	-0.2155988300629512	0.01122814131217899	0.01962216503346319	0.1569627865273207	0.1569627868013982	-0.3814572580574474	-0.185151376276632
